<?xml version="1.0" encoding="utf-8"?>
<!DOCTYPE svg PUBLIC "-//W3C//DTD SVG 1.1//EN" "http://www.w3.org/Graphics/SVG/1.1/DTD/svg11.dtd">
<svg xmlns="http://www.w3.org/2000/svg" version="1.1" xml:space="preserve" xmlns:xlink="http://www.w3.org/1999/xlink" width="984" height="984" viewBox="0 0 984 984">
<desc></desc>
<rect width="984" height="984" fill="#ffffff" cx="0" cy="0" />
<defs>
	<rect id="p" width="24" height="24" />
</defs>
<g fill="#000000">
	<use x="96" y="96" xlink:href="#p" />
	<use x="120" y="96" xlink:href="#p" />
	<use x="144" y="96" xlink:href="#p" />
	<use x="168" y="96" xlink:href="#p" />
	<use x="192" y="96" xlink:href="#p" />
	<use x="216" y="96" xlink:href="#p" />
	<use x="240" y="96" xlink:href="#p" />
	<use x="336" y="96" xlink:href="#p" />
	<use x="432" y="96" xlink:href="#p" />
	<use x="504" y="96" xlink:href="#p" />
	<use x="528" y="96" xlink:href="#p" />
	<use x="552" y="96" xlink:href="#p" />
	<use x="600" y="96" xlink:href="#p" />
	<use x="624" y="96" xlink:href="#p" />
	<use x="648" y="96" xlink:href="#p" />
	<use x="720" y="96" xlink:href="#p" />
	<use x="744" y="96" xlink:href="#p" />
	<use x="768" y="96" xlink:href="#p" />
	<use x="792" y="96" xlink:href="#p" />
	<use x="816" y="96" xlink:href="#p" />
	<use x="840" y="96" xlink:href="#p" />
	<use x="864" y="96" xlink:href="#p" />
	<use x="96" y="120" xlink:href="#p" />
	<use x="240" y="120" xlink:href="#p" />
	<use x="312" y="120" xlink:href="#p" />
	<use x="408" y="120" xlink:href="#p" />
	<use x="504" y="120" xlink:href="#p" />
	<use x="552" y="120" xlink:href="#p" />
	<use x="648" y="120" xlink:href="#p" />
	<use x="720" y="120" xlink:href="#p" />
	<use x="864" y="120" xlink:href="#p" />
	<use x="96" y="144" xlink:href="#p" />
	<use x="144" y="144" xlink:href="#p" />
	<use x="168" y="144" xlink:href="#p" />
	<use x="192" y="144" xlink:href="#p" />
	<use x="240" y="144" xlink:href="#p" />
	<use x="288" y="144" xlink:href="#p" />
	<use x="360" y="144" xlink:href="#p" />
	<use x="456" y="144" xlink:href="#p" />
	<use x="528" y="144" xlink:href="#p" />
	<use x="552" y="144" xlink:href="#p" />
	<use x="576" y="144" xlink:href="#p" />
	<use x="624" y="144" xlink:href="#p" />
	<use x="648" y="144" xlink:href="#p" />
	<use x="720" y="144" xlink:href="#p" />
	<use x="768" y="144" xlink:href="#p" />
	<use x="792" y="144" xlink:href="#p" />
	<use x="816" y="144" xlink:href="#p" />
	<use x="864" y="144" xlink:href="#p" />
	<use x="96" y="168" xlink:href="#p" />
	<use x="144" y="168" xlink:href="#p" />
	<use x="168" y="168" xlink:href="#p" />
	<use x="192" y="168" xlink:href="#p" />
	<use x="240" y="168" xlink:href="#p" />
	<use x="312" y="168" xlink:href="#p" />
	<use x="384" y="168" xlink:href="#p" />
	<use x="408" y="168" xlink:href="#p" />
	<use x="480" y="168" xlink:href="#p" />
	<use x="528" y="168" xlink:href="#p" />
	<use x="576" y="168" xlink:href="#p" />
	<use x="648" y="168" xlink:href="#p" />
	<use x="720" y="168" xlink:href="#p" />
	<use x="768" y="168" xlink:href="#p" />
	<use x="792" y="168" xlink:href="#p" />
	<use x="816" y="168" xlink:href="#p" />
	<use x="864" y="168" xlink:href="#p" />
	<use x="96" y="192" xlink:href="#p" />
	<use x="144" y="192" xlink:href="#p" />
	<use x="168" y="192" xlink:href="#p" />
	<use x="192" y="192" xlink:href="#p" />
	<use x="240" y="192" xlink:href="#p" />
	<use x="312" y="192" xlink:href="#p" />
	<use x="384" y="192" xlink:href="#p" />
	<use x="408" y="192" xlink:href="#p" />
	<use x="480" y="192" xlink:href="#p" />
	<use x="552" y="192" xlink:href="#p" />
	<use x="648" y="192" xlink:href="#p" />
	<use x="720" y="192" xlink:href="#p" />
	<use x="768" y="192" xlink:href="#p" />
	<use x="792" y="192" xlink:href="#p" />
	<use x="816" y="192" xlink:href="#p" />
	<use x="864" y="192" xlink:href="#p" />
	<use x="96" y="216" xlink:href="#p" />
	<use x="240" y="216" xlink:href="#p" />
	<use x="336" y="216" xlink:href="#p" />
	<use x="360" y="216" xlink:href="#p" />
	<use x="384" y="216" xlink:href="#p" />
	<use x="432" y="216" xlink:href="#p" />
	<use x="456" y="216" xlink:href="#p" />
	<use x="480" y="216" xlink:href="#p" />
	<use x="552" y="216" xlink:href="#p" />
	<use x="576" y="216" xlink:href="#p" />
	<use x="600" y="216" xlink:href="#p" />
	<use x="624" y="216" xlink:href="#p" />
	<use x="648" y="216" xlink:href="#p" />
	<use x="672" y="216" xlink:href="#p" />
	<use x="720" y="216" xlink:href="#p" />
	<use x="864" y="216" xlink:href="#p" />
	<use x="96" y="240" xlink:href="#p" />
	<use x="120" y="240" xlink:href="#p" />
	<use x="144" y="240" xlink:href="#p" />
	<use x="168" y="240" xlink:href="#p" />
	<use x="192" y="240" xlink:href="#p" />
	<use x="216" y="240" xlink:href="#p" />
	<use x="240" y="240" xlink:href="#p" />
	<use x="288" y="240" xlink:href="#p" />
	<use x="336" y="240" xlink:href="#p" />
	<use x="384" y="240" xlink:href="#p" />
	<use x="432" y="240" xlink:href="#p" />
	<use x="480" y="240" xlink:href="#p" />
	<use x="528" y="240" xlink:href="#p" />
	<use x="576" y="240" xlink:href="#p" />
	<use x="624" y="240" xlink:href="#p" />
	<use x="672" y="240" xlink:href="#p" />
	<use x="720" y="240" xlink:href="#p" />
	<use x="744" y="240" xlink:href="#p" />
	<use x="768" y="240" xlink:href="#p" />
	<use x="792" y="240" xlink:href="#p" />
	<use x="816" y="240" xlink:href="#p" />
	<use x="840" y="240" xlink:href="#p" />
	<use x="864" y="240" xlink:href="#p" />
	<use x="288" y="264" xlink:href="#p" />
	<use x="360" y="264" xlink:href="#p" />
	<use x="456" y="264" xlink:href="#p" />
	<use x="504" y="264" xlink:href="#p" />
	<use x="528" y="264" xlink:href="#p" />
	<use x="552" y="264" xlink:href="#p" />
	<use x="576" y="264" xlink:href="#p" />
	<use x="600" y="264" xlink:href="#p" />
	<use x="624" y="264" xlink:href="#p" />
	<use x="648" y="264" xlink:href="#p" />
	<use x="672" y="264" xlink:href="#p" />
	<use x="96" y="288" xlink:href="#p" />
	<use x="120" y="288" xlink:href="#p" />
	<use x="144" y="288" xlink:href="#p" />
	<use x="192" y="288" xlink:href="#p" />
	<use x="216" y="288" xlink:href="#p" />
	<use x="240" y="288" xlink:href="#p" />
	<use x="264" y="288" xlink:href="#p" />
	<use x="288" y="288" xlink:href="#p" />
	<use x="384" y="288" xlink:href="#p" />
	<use x="480" y="288" xlink:href="#p" />
	<use x="504" y="288" xlink:href="#p" />
	<use x="600" y="288" xlink:href="#p" />
	<use x="696" y="288" xlink:href="#p" />
	<use x="720" y="288" xlink:href="#p" />
	<use x="816" y="288" xlink:href="#p" />
	<use x="96" y="312" xlink:href="#p" />
	<use x="144" y="312" xlink:href="#p" />
	<use x="168" y="312" xlink:href="#p" />
	<use x="192" y="312" xlink:href="#p" />
	<use x="312" y="312" xlink:href="#p" />
	<use x="360" y="312" xlink:href="#p" />
	<use x="384" y="312" xlink:href="#p" />
	<use x="408" y="312" xlink:href="#p" />
	<use x="456" y="312" xlink:href="#p" />
	<use x="480" y="312" xlink:href="#p" />
	<use x="504" y="312" xlink:href="#p" />
	<use x="528" y="312" xlink:href="#p" />
	<use x="600" y="312" xlink:href="#p" />
	<use x="624" y="312" xlink:href="#p" />
	<use x="672" y="312" xlink:href="#p" />
	<use x="720" y="312" xlink:href="#p" />
	<use x="816" y="312" xlink:href="#p" />
	<use x="840" y="312" xlink:href="#p" />
	<use x="864" y="312" xlink:href="#p" />
	<use x="120" y="336" xlink:href="#p" />
	<use x="144" y="336" xlink:href="#p" />
	<use x="216" y="336" xlink:href="#p" />
	<use x="240" y="336" xlink:href="#p" />
	<use x="336" y="336" xlink:href="#p" />
	<use x="360" y="336" xlink:href="#p" />
	<use x="384" y="336" xlink:href="#p" />
	<use x="432" y="336" xlink:href="#p" />
	<use x="456" y="336" xlink:href="#p" />
	<use x="480" y="336" xlink:href="#p" />
	<use x="504" y="336" xlink:href="#p" />
	<use x="528" y="336" xlink:href="#p" />
	<use x="576" y="336" xlink:href="#p" />
	<use x="624" y="336" xlink:href="#p" />
	<use x="672" y="336" xlink:href="#p" />
	<use x="720" y="336" xlink:href="#p" />
	<use x="768" y="336" xlink:href="#p" />
	<use x="792" y="336" xlink:href="#p" />
	<use x="840" y="336" xlink:href="#p" />
	<use x="864" y="336" xlink:href="#p" />
	<use x="120" y="360" xlink:href="#p" />
	<use x="144" y="360" xlink:href="#p" />
	<use x="168" y="360" xlink:href="#p" />
	<use x="192" y="360" xlink:href="#p" />
	<use x="216" y="360" xlink:href="#p" />
	<use x="288" y="360" xlink:href="#p" />
	<use x="312" y="360" xlink:href="#p" />
	<use x="336" y="360" xlink:href="#p" />
	<use x="384" y="360" xlink:href="#p" />
	<use x="408" y="360" xlink:href="#p" />
	<use x="432" y="360" xlink:href="#p" />
	<use x="480" y="360" xlink:href="#p" />
	<use x="504" y="360" xlink:href="#p" />
	<use x="528" y="360" xlink:href="#p" />
	<use x="552" y="360" xlink:href="#p" />
	<use x="600" y="360" xlink:href="#p" />
	<use x="672" y="360" xlink:href="#p" />
	<use x="864" y="360" xlink:href="#p" />
	<use x="96" y="384" xlink:href="#p" />
	<use x="168" y="384" xlink:href="#p" />
	<use x="192" y="384" xlink:href="#p" />
	<use x="240" y="384" xlink:href="#p" />
	<use x="288" y="384" xlink:href="#p" />
	<use x="336" y="384" xlink:href="#p" />
	<use x="360" y="384" xlink:href="#p" />
	<use x="432" y="384" xlink:href="#p" />
	<use x="456" y="384" xlink:href="#p" />
	<use x="504" y="384" xlink:href="#p" />
	<use x="528" y="384" xlink:href="#p" />
	<use x="600" y="384" xlink:href="#p" />
	<use x="720" y="384" xlink:href="#p" />
	<use x="744" y="384" xlink:href="#p" />
	<use x="864" y="384" xlink:href="#p" />
	<use x="96" y="408" xlink:href="#p" />
	<use x="144" y="408" xlink:href="#p" />
	<use x="192" y="408" xlink:href="#p" />
	<use x="216" y="408" xlink:href="#p" />
	<use x="336" y="408" xlink:href="#p" />
	<use x="360" y="408" xlink:href="#p" />
	<use x="432" y="408" xlink:href="#p" />
	<use x="456" y="408" xlink:href="#p" />
	<use x="504" y="408" xlink:href="#p" />
	<use x="528" y="408" xlink:href="#p" />
	<use x="576" y="408" xlink:href="#p" />
	<use x="600" y="408" xlink:href="#p" />
	<use x="624" y="408" xlink:href="#p" />
	<use x="672" y="408" xlink:href="#p" />
	<use x="720" y="408" xlink:href="#p" />
	<use x="792" y="408" xlink:href="#p" />
	<use x="816" y="408" xlink:href="#p" />
	<use x="840" y="408" xlink:href="#p" />
	<use x="864" y="408" xlink:href="#p" />
	<use x="144" y="432" xlink:href="#p" />
	<use x="192" y="432" xlink:href="#p" />
	<use x="216" y="432" xlink:href="#p" />
	<use x="240" y="432" xlink:href="#p" />
	<use x="288" y="432" xlink:href="#p" />
	<use x="336" y="432" xlink:href="#p" />
	<use x="408" y="432" xlink:href="#p" />
	<use x="528" y="432" xlink:href="#p" />
	<use x="600" y="432" xlink:href="#p" />
	<use x="720" y="432" xlink:href="#p" />
	<use x="792" y="432" xlink:href="#p" />
	<use x="816" y="432" xlink:href="#p" />
	<use x="840" y="432" xlink:href="#p" />
	<use x="864" y="432" xlink:href="#p" />
	<use x="96" y="456" xlink:href="#p" />
	<use x="144" y="456" xlink:href="#p" />
	<use x="168" y="456" xlink:href="#p" />
	<use x="192" y="456" xlink:href="#p" />
	<use x="288" y="456" xlink:href="#p" />
	<use x="336" y="456" xlink:href="#p" />
	<use x="360" y="456" xlink:href="#p" />
	<use x="456" y="456" xlink:href="#p" />
	<use x="504" y="456" xlink:href="#p" />
	<use x="576" y="456" xlink:href="#p" />
	<use x="600" y="456" xlink:href="#p" />
	<use x="624" y="456" xlink:href="#p" />
	<use x="648" y="456" xlink:href="#p" />
	<use x="672" y="456" xlink:href="#p" />
	<use x="696" y="456" xlink:href="#p" />
	<use x="720" y="456" xlink:href="#p" />
	<use x="744" y="456" xlink:href="#p" />
	<use x="840" y="456" xlink:href="#p" />
	<use x="120" y="480" xlink:href="#p" />
	<use x="144" y="480" xlink:href="#p" />
	<use x="240" y="480" xlink:href="#p" />
	<use x="288" y="480" xlink:href="#p" />
	<use x="336" y="480" xlink:href="#p" />
	<use x="384" y="480" xlink:href="#p" />
	<use x="480" y="480" xlink:href="#p" />
	<use x="504" y="480" xlink:href="#p" />
	<use x="600" y="480" xlink:href="#p" />
	<use x="696" y="480" xlink:href="#p" />
	<use x="720" y="480" xlink:href="#p" />
	<use x="744" y="480" xlink:href="#p" />
	<use x="840" y="480" xlink:href="#p" />
	<use x="864" y="480" xlink:href="#p" />
	<use x="120" y="504" xlink:href="#p" />
	<use x="144" y="504" xlink:href="#p" />
	<use x="192" y="504" xlink:href="#p" />
	<use x="264" y="504" xlink:href="#p" />
	<use x="288" y="504" xlink:href="#p" />
	<use x="360" y="504" xlink:href="#p" />
	<use x="384" y="504" xlink:href="#p" />
	<use x="408" y="504" xlink:href="#p" />
	<use x="456" y="504" xlink:href="#p" />
	<use x="480" y="504" xlink:href="#p" />
	<use x="504" y="504" xlink:href="#p" />
	<use x="576" y="504" xlink:href="#p" />
	<use x="600" y="504" xlink:href="#p" />
	<use x="624" y="504" xlink:href="#p" />
	<use x="672" y="504" xlink:href="#p" />
	<use x="696" y="504" xlink:href="#p" />
	<use x="720" y="504" xlink:href="#p" />
	<use x="816" y="504" xlink:href="#p" />
	<use x="864" y="504" xlink:href="#p" />
	<use x="120" y="528" xlink:href="#p" />
	<use x="144" y="528" xlink:href="#p" />
	<use x="168" y="528" xlink:href="#p" />
	<use x="192" y="528" xlink:href="#p" />
	<use x="216" y="528" xlink:href="#p" />
	<use x="240" y="528" xlink:href="#p" />
	<use x="264" y="528" xlink:href="#p" />
	<use x="312" y="528" xlink:href="#p" />
	<use x="360" y="528" xlink:href="#p" />
	<use x="384" y="528" xlink:href="#p" />
	<use x="432" y="528" xlink:href="#p" />
	<use x="456" y="528" xlink:href="#p" />
	<use x="480" y="528" xlink:href="#p" />
	<use x="504" y="528" xlink:href="#p" />
	<use x="576" y="528" xlink:href="#p" />
	<use x="624" y="528" xlink:href="#p" />
	<use x="672" y="528" xlink:href="#p" />
	<use x="696" y="528" xlink:href="#p" />
	<use x="720" y="528" xlink:href="#p" />
	<use x="744" y="528" xlink:href="#p" />
	<use x="768" y="528" xlink:href="#p" />
	<use x="840" y="528" xlink:href="#p" />
	<use x="864" y="528" xlink:href="#p" />
	<use x="96" y="552" xlink:href="#p" />
	<use x="120" y="552" xlink:href="#p" />
	<use x="192" y="552" xlink:href="#p" />
	<use x="336" y="552" xlink:href="#p" />
	<use x="384" y="552" xlink:href="#p" />
	<use x="408" y="552" xlink:href="#p" />
	<use x="432" y="552" xlink:href="#p" />
	<use x="480" y="552" xlink:href="#p" />
	<use x="504" y="552" xlink:href="#p" />
	<use x="552" y="552" xlink:href="#p" />
	<use x="576" y="552" xlink:href="#p" />
	<use x="600" y="552" xlink:href="#p" />
	<use x="624" y="552" xlink:href="#p" />
	<use x="696" y="552" xlink:href="#p" />
	<use x="720" y="552" xlink:href="#p" />
	<use x="744" y="552" xlink:href="#p" />
	<use x="120" y="576" xlink:href="#p" />
	<use x="144" y="576" xlink:href="#p" />
	<use x="216" y="576" xlink:href="#p" />
	<use x="240" y="576" xlink:href="#p" />
	<use x="288" y="576" xlink:href="#p" />
	<use x="336" y="576" xlink:href="#p" />
	<use x="360" y="576" xlink:href="#p" />
	<use x="432" y="576" xlink:href="#p" />
	<use x="456" y="576" xlink:href="#p" />
	<use x="480" y="576" xlink:href="#p" />
	<use x="504" y="576" xlink:href="#p" />
	<use x="528" y="576" xlink:href="#p" />
	<use x="600" y="576" xlink:href="#p" />
	<use x="648" y="576" xlink:href="#p" />
	<use x="672" y="576" xlink:href="#p" />
	<use x="720" y="576" xlink:href="#p" />
	<use x="744" y="576" xlink:href="#p" />
	<use x="288" y="600" xlink:href="#p" />
	<use x="336" y="600" xlink:href="#p" />
	<use x="360" y="600" xlink:href="#p" />
	<use x="432" y="600" xlink:href="#p" />
	<use x="456" y="600" xlink:href="#p" />
	<use x="504" y="600" xlink:href="#p" />
	<use x="528" y="600" xlink:href="#p" />
	<use x="576" y="600" xlink:href="#p" />
	<use x="624" y="600" xlink:href="#p" />
	<use x="672" y="600" xlink:href="#p" />
	<use x="720" y="600" xlink:href="#p" />
	<use x="792" y="600" xlink:href="#p" />
	<use x="840" y="600" xlink:href="#p" />
	<use x="864" y="600" xlink:href="#p" />
	<use x="96" y="624" xlink:href="#p" />
	<use x="168" y="624" xlink:href="#p" />
	<use x="216" y="624" xlink:href="#p" />
	<use x="240" y="624" xlink:href="#p" />
	<use x="264" y="624" xlink:href="#p" />
	<use x="288" y="624" xlink:href="#p" />
	<use x="408" y="624" xlink:href="#p" />
	<use x="480" y="624" xlink:href="#p" />
	<use x="504" y="624" xlink:href="#p" />
	<use x="528" y="624" xlink:href="#p" />
	<use x="576" y="624" xlink:href="#p" />
	<use x="624" y="624" xlink:href="#p" />
	<use x="672" y="624" xlink:href="#p" />
	<use x="720" y="624" xlink:href="#p" />
	<use x="792" y="624" xlink:href="#p" />
	<use x="840" y="624" xlink:href="#p" />
	<use x="864" y="624" xlink:href="#p" />
	<use x="120" y="648" xlink:href="#p" />
	<use x="168" y="648" xlink:href="#p" />
	<use x="192" y="648" xlink:href="#p" />
	<use x="216" y="648" xlink:href="#p" />
	<use x="288" y="648" xlink:href="#p" />
	<use x="336" y="648" xlink:href="#p" />
	<use x="360" y="648" xlink:href="#p" />
	<use x="480" y="648" xlink:href="#p" />
	<use x="504" y="648" xlink:href="#p" />
	<use x="528" y="648" xlink:href="#p" />
	<use x="552" y="648" xlink:href="#p" />
	<use x="576" y="648" xlink:href="#p" />
	<use x="600" y="648" xlink:href="#p" />
	<use x="624" y="648" xlink:href="#p" />
	<use x="648" y="648" xlink:href="#p" />
	<use x="672" y="648" xlink:href="#p" />
	<use x="696" y="648" xlink:href="#p" />
	<use x="720" y="648" xlink:href="#p" />
	<use x="744" y="648" xlink:href="#p" />
	<use x="768" y="648" xlink:href="#p" />
	<use x="840" y="648" xlink:href="#p" />
	<use x="864" y="648" xlink:href="#p" />
	<use x="96" y="672" xlink:href="#p" />
	<use x="144" y="672" xlink:href="#p" />
	<use x="240" y="672" xlink:href="#p" />
	<use x="384" y="672" xlink:href="#p" />
	<use x="456" y="672" xlink:href="#p" />
	<use x="480" y="672" xlink:href="#p" />
	<use x="504" y="672" xlink:href="#p" />
	<use x="600" y="672" xlink:href="#p" />
	<use x="672" y="672" xlink:href="#p" />
	<use x="696" y="672" xlink:href="#p" />
	<use x="720" y="672" xlink:href="#p" />
	<use x="744" y="672" xlink:href="#p" />
	<use x="768" y="672" xlink:href="#p" />
	<use x="864" y="672" xlink:href="#p" />
	<use x="288" y="696" xlink:href="#p" />
	<use x="336" y="696" xlink:href="#p" />
	<use x="360" y="696" xlink:href="#p" />
	<use x="384" y="696" xlink:href="#p" />
	<use x="408" y="696" xlink:href="#p" />
	<use x="480" y="696" xlink:href="#p" />
	<use x="504" y="696" xlink:href="#p" />
	<use x="624" y="696" xlink:href="#p" />
	<use x="672" y="696" xlink:href="#p" />
	<use x="768" y="696" xlink:href="#p" />
	<use x="792" y="696" xlink:href="#p" />
	<use x="840" y="696" xlink:href="#p" />
	<use x="864" y="696" xlink:href="#p" />
	<use x="96" y="720" xlink:href="#p" />
	<use x="120" y="720" xlink:href="#p" />
	<use x="144" y="720" xlink:href="#p" />
	<use x="168" y="720" xlink:href="#p" />
	<use x="192" y="720" xlink:href="#p" />
	<use x="216" y="720" xlink:href="#p" />
	<use x="240" y="720" xlink:href="#p" />
	<use x="288" y="720" xlink:href="#p" />
	<use x="360" y="720" xlink:href="#p" />
	<use x="384" y="720" xlink:href="#p" />
	<use x="432" y="720" xlink:href="#p" />
	<use x="528" y="720" xlink:href="#p" />
	<use x="624" y="720" xlink:href="#p" />
	<use x="648" y="720" xlink:href="#p" />
	<use x="672" y="720" xlink:href="#p" />
	<use x="720" y="720" xlink:href="#p" />
	<use x="768" y="720" xlink:href="#p" />
	<use x="792" y="720" xlink:href="#p" />
	<use x="816" y="720" xlink:href="#p" />
	<use x="840" y="720" xlink:href="#p" />
	<use x="864" y="720" xlink:href="#p" />
	<use x="96" y="744" xlink:href="#p" />
	<use x="240" y="744" xlink:href="#p" />
	<use x="288" y="744" xlink:href="#p" />
	<use x="312" y="744" xlink:href="#p" />
	<use x="384" y="744" xlink:href="#p" />
	<use x="408" y="744" xlink:href="#p" />
	<use x="432" y="744" xlink:href="#p" />
	<use x="480" y="744" xlink:href="#p" />
	<use x="504" y="744" xlink:href="#p" />
	<use x="528" y="744" xlink:href="#p" />
	<use x="552" y="744" xlink:href="#p" />
	<use x="576" y="744" xlink:href="#p" />
	<use x="600" y="744" xlink:href="#p" />
	<use x="624" y="744" xlink:href="#p" />
	<use x="672" y="744" xlink:href="#p" />
	<use x="768" y="744" xlink:href="#p" />
	<use x="840" y="744" xlink:href="#p" />
	<use x="864" y="744" xlink:href="#p" />
	<use x="96" y="768" xlink:href="#p" />
	<use x="144" y="768" xlink:href="#p" />
	<use x="168" y="768" xlink:href="#p" />
	<use x="192" y="768" xlink:href="#p" />
	<use x="240" y="768" xlink:href="#p" />
	<use x="288" y="768" xlink:href="#p" />
	<use x="360" y="768" xlink:href="#p" />
	<use x="432" y="768" xlink:href="#p" />
	<use x="504" y="768" xlink:href="#p" />
	<use x="528" y="768" xlink:href="#p" />
	<use x="600" y="768" xlink:href="#p" />
	<use x="672" y="768" xlink:href="#p" />
	<use x="696" y="768" xlink:href="#p" />
	<use x="720" y="768" xlink:href="#p" />
	<use x="744" y="768" xlink:href="#p" />
	<use x="768" y="768" xlink:href="#p" />
	<use x="792" y="768" xlink:href="#p" />
	<use x="840" y="768" xlink:href="#p" />
	<use x="864" y="768" xlink:href="#p" />
	<use x="96" y="792" xlink:href="#p" />
	<use x="144" y="792" xlink:href="#p" />
	<use x="168" y="792" xlink:href="#p" />
	<use x="192" y="792" xlink:href="#p" />
	<use x="240" y="792" xlink:href="#p" />
	<use x="360" y="792" xlink:href="#p" />
	<use x="432" y="792" xlink:href="#p" />
	<use x="480" y="792" xlink:href="#p" />
	<use x="504" y="792" xlink:href="#p" />
	<use x="528" y="792" xlink:href="#p" />
	<use x="576" y="792" xlink:href="#p" />
	<use x="600" y="792" xlink:href="#p" />
	<use x="624" y="792" xlink:href="#p" />
	<use x="672" y="792" xlink:href="#p" />
	<use x="768" y="792" xlink:href="#p" />
	<use x="792" y="792" xlink:href="#p" />
	<use x="864" y="792" xlink:href="#p" />
	<use x="96" y="816" xlink:href="#p" />
	<use x="144" y="816" xlink:href="#p" />
	<use x="168" y="816" xlink:href="#p" />
	<use x="192" y="816" xlink:href="#p" />
	<use x="240" y="816" xlink:href="#p" />
	<use x="288" y="816" xlink:href="#p" />
	<use x="312" y="816" xlink:href="#p" />
	<use x="336" y="816" xlink:href="#p" />
	<use x="408" y="816" xlink:href="#p" />
	<use x="576" y="816" xlink:href="#p" />
	<use x="624" y="816" xlink:href="#p" />
	<use x="768" y="816" xlink:href="#p" />
	<use x="792" y="816" xlink:href="#p" />
	<use x="864" y="816" xlink:href="#p" />
	<use x="96" y="840" xlink:href="#p" />
	<use x="240" y="840" xlink:href="#p" />
	<use x="288" y="840" xlink:href="#p" />
	<use x="312" y="840" xlink:href="#p" />
	<use x="360" y="840" xlink:href="#p" />
	<use x="480" y="840" xlink:href="#p" />
	<use x="504" y="840" xlink:href="#p" />
	<use x="528" y="840" xlink:href="#p" />
	<use x="552" y="840" xlink:href="#p" />
	<use x="600" y="840" xlink:href="#p" />
	<use x="648" y="840" xlink:href="#p" />
	<use x="672" y="840" xlink:href="#p" />
	<use x="720" y="840" xlink:href="#p" />
	<use x="744" y="840" xlink:href="#p" />
	<use x="840" y="840" xlink:href="#p" />
	<use x="96" y="864" xlink:href="#p" />
	<use x="120" y="864" xlink:href="#p" />
	<use x="144" y="864" xlink:href="#p" />
	<use x="168" y="864" xlink:href="#p" />
	<use x="192" y="864" xlink:href="#p" />
	<use x="216" y="864" xlink:href="#p" />
	<use x="240" y="864" xlink:href="#p" />
	<use x="288" y="864" xlink:href="#p" />
	<use x="336" y="864" xlink:href="#p" />
	<use x="384" y="864" xlink:href="#p" />
	<use x="504" y="864" xlink:href="#p" />
	<use x="600" y="864" xlink:href="#p" />
	<use x="624" y="864" xlink:href="#p" />
	<use x="648" y="864" xlink:href="#p" />
	<use x="672" y="864" xlink:href="#p" />
	<use x="696" y="864" xlink:href="#p" />
	<use x="720" y="864" xlink:href="#p" />
	<use x="840" y="864" xlink:href="#p" />
	<use x="864" y="864" xlink:href="#p" />
</g>
</svg>