<svg version="1.1" width="390" height="2000" style="overflow: hidden;"><defs></defs><g id="two_0" transform="matrix(1 0 0 1 0 0)" opacity="1"><g id="two_3" transform="matrix(1 0 0 1 0 0)" opacity="1"><path transform="matrix(1 0 0 1 145 85)" d="M 50 -45 L -50 45 " fill="#bfffb3" stroke="#bfffb3" stroke-width="1" stroke-opacity="1" fill-opacity="1" visibility="visible" stroke-linecap="butt" stroke-linejoin="miter" stroke-miterlimit="4" id="two_9"></path><path transform="matrix(1 0 0 1 70 175)" d="M 25 -45 L -25 45 " fill="#bfffb3" stroke="#bfffb3" stroke-width="1" stroke-opacity="1" fill-opacity="1" visibility="visible" stroke-linecap="butt" stroke-linejoin="miter" stroke-miterlimit="4" id="two_12"></path><path transform="matrix(1 0 0 1 32.5 265)" d="M 12.5 -45 L -12.5 45 " fill="#bfffb3" stroke="#bfffb3" stroke-width="1" stroke-opacity="1" fill-opacity="1" visibility="visible" stroke-linecap="butt" stroke-linejoin="miter" stroke-miterlimit="4" id="two_15"></path><path transform="matrix(1 0 0 1 57.5 265)" d="M -12.5 -45 L 12.5 45 " fill="#bfffb3" stroke="#bfffb3" stroke-width="1" stroke-opacity="1" fill-opacity="1" visibility="visible" stroke-linecap="butt" stroke-linejoin="miter" stroke-miterlimit="4" id="two_18"></path><path transform="matrix(1 0 0 1 120 175)" d="M -25 -45 L 25 45 " fill="#bfffb3" stroke="#bfffb3" stroke-width="1" stroke-opacity="1" fill-opacity="1" visibility="visible" stroke-linecap="butt" stroke-linejoin="miter" stroke-miterlimit="4" id="two_21"></path><path transform="matrix(1 0 0 1 245 85)" d="M -50 -45 L 50 45 " fill="#bfffb3" stroke="#bfffb3" stroke-width="1" stroke-opacity="1" fill-opacity="1" visibility="visible" stroke-linecap="butt" stroke-linejoin="miter" stroke-miterlimit="4" id="two_24"></path><path transform="matrix(1 0 0 1 270 175)" d="M 25 -45 L -25 45 " fill="#bfffb3" stroke="#bfffb3" stroke-width="1" stroke-opacity="1" fill-opacity="1" visibility="visible" stroke-linecap="butt" stroke-linejoin="miter" stroke-miterlimit="4" id="two_27"></path><path transform="matrix(1 0 0 1 320 175)" d="M -25 -45 L 25 45 " fill="#bfffb3" stroke="#bfffb3" stroke-width="1" stroke-opacity="1" fill-opacity="1" visibility="visible" stroke-linecap="butt" stroke-linejoin="miter" stroke-miterlimit="4" id="two_30"></path><path transform="matrix(1 0 0 1 332.5 265)" d="M 12.5 -45 L -12.5 45 " fill="#bfffb3" stroke="#bfffb3" stroke-width="1" stroke-opacity="1" fill-opacity="1" visibility="visible" stroke-linecap="butt" stroke-linejoin="miter" stroke-miterlimit="4" id="two_33"></path><path transform="matrix(1 0 0 1 357.5 265)" d="M -12.5 -45 L 12.5 45 " fill="#bfffb3" stroke="#bfffb3" stroke-width="1" stroke-opacity="1" fill-opacity="1" visibility="visible" stroke-linecap="butt" stroke-linejoin="miter" stroke-miterlimit="4" id="two_36"></path></g><g id="two_4" transform="matrix(1 0 0 1 0 0)" opacity="1"><path transform="matrix(1 0 0 1 195 40)" d="M 40 0 C 40 10.102 35.428 21.14 28.284 28.284 C 21.14 35.428 10.102 40 0 40 C -10.103 40 -21.141 35.428 -28.285 28.284 C -35.429 21.14 -40 10.102 -40 0 C -40 -10.103 -35.429 -21.141 -28.285 -28.285 C -21.141 -35.429 -10.103 -40 -0.001 -40 C 10.102 -40 21.14 -35.429 28.284 -28.285 C 35.428 -21.141 40 -10.103 40 0 Z " fill="#bfffb3" stroke="black" stroke-width="1" stroke-opacity="1" fill-opacity="1" visibility="visible" stroke-linecap="butt" stroke-linejoin="miter" stroke-miterlimit="4" id="two_5"></path><text transform="matrix(1 0 0 1 195 41.5)" font-family="FiraCode" font-size="32" line-height="17" text-anchor="middle" dominant-baseline="middle" alignment-baseline="middle" font-style="normal" font-weight="500" text-decoration="none" fill="#000" stroke="transparent" stroke-width="1" opacity="1" visibility="visible" id="two_6">a:b</text><path transform="matrix(1 0 0 1 95 130)" d="M 40 0 C 40 10.102 35.428 21.14 28.284 28.284 C 21.14 35.428 10.102 40 0 40 C -10.103 40 -21.141 35.428 -28.285 28.284 C -35.429 21.14 -40 10.102 -40 0 C -40 -10.103 -35.429 -21.141 -28.285 -28.285 C -21.141 -35.429 -10.103 -40 -0.001 -40 C 10.102 -40 21.14 -35.429 28.284 -28.285 C 35.428 -21.141 40 -10.103 40 0 Z " fill="#bfffb3" stroke="black" stroke-width="1" stroke-opacity="1" fill-opacity="1" visibility="visible" stroke-linecap="butt" stroke-linejoin="miter" stroke-miterlimit="4" id="two_7"></path><text transform="matrix(1 0 0 1 95 131.5)" font-family="FiraCode" font-size="32" line-height="17" text-anchor="middle" dominant-baseline="middle" alignment-baseline="middle" font-style="normal" font-weight="500" text-decoration="none" fill="#000" stroke="transparent" stroke-width="1" opacity="1" visibility="visible" id="two_8">a:c</text><path transform="matrix(1 0 0 1 45 220)" d="M 40 0 C 40 10.102 35.428 21.14 28.284 28.284 C 21.14 35.428 10.102 40 0 40 C -10.103 40 -21.141 35.428 -28.285 28.284 C -35.429 21.14 -40 10.102 -40 0 C -40 -10.103 -35.429 -21.141 -28.285 -28.285 C -21.141 -35.429 -10.103 -40 -0.001 -40 C 10.102 -40 21.14 -35.429 28.284 -28.285 C 35.428 -21.141 40 -10.103 40 0 Z " fill="#bfffb3" stroke="black" stroke-width="1" stroke-opacity="1" fill-opacity="1" visibility="visible" stroke-linecap="butt" stroke-linejoin="miter" stroke-miterlimit="4" id="two_10"></path><text transform="matrix(1 0 0 1 45 221.5)" font-family="FiraCode" font-size="32" line-height="17" text-anchor="middle" dominant-baseline="middle" alignment-baseline="middle" font-style="normal" font-weight="500" text-decoration="none" fill="#000" stroke="transparent" stroke-width="1" opacity="1" visibility="visible" id="two_11">b:c</text><path transform="matrix(1 0 0 1 20 310)" d="M -20 -30 L 20 -30 L 20 30 L -20 30 Z " fill="#bfffb3" stroke="black" stroke-width="1" stroke-opacity="1" fill-opacity="1" visibility="visible" stroke-linecap="butt" stroke-linejoin="miter" stroke-miterlimit="4" id="two_13"></path><text transform="matrix(1 0 0 1 20 311.5)" font-family="FiraCode" font-size="32" line-height="17" text-anchor="middle" dominant-baseline="middle" alignment-baseline="middle" font-style="normal" font-weight="500" text-decoration="none" fill="#000" stroke="transparent" stroke-width="1" opacity="1" visibility="visible" id="two_14">b</text><path transform="matrix(1 0 0 1 70 310)" d="M -20 -30 L 20 -30 L 20 30 L -20 30 Z " fill="#bfffb3" stroke="black" stroke-width="1" stroke-opacity="1" fill-opacity="1" visibility="visible" stroke-linecap="butt" stroke-linejoin="miter" stroke-miterlimit="4" id="two_16"></path><text transform="matrix(1 0 0 1 70 311.5)" font-family="FiraCode" font-size="32" line-height="17" text-anchor="middle" dominant-baseline="middle" alignment-baseline="middle" font-style="normal" font-weight="500" text-decoration="none" fill="#000" stroke="transparent" stroke-width="1" opacity="1" visibility="visible" id="two_17">c</text><path transform="matrix(1 0 0 1 145 220)" d="M -20 -30 L 20 -30 L 20 30 L -20 30 Z " fill="#bfffb3" stroke="black" stroke-width="1" stroke-opacity="1" fill-opacity="1" visibility="visible" stroke-linecap="butt" stroke-linejoin="miter" stroke-miterlimit="4" id="two_19"></path><text transform="matrix(1 0 0 1 145 221.5)" font-family="FiraCode" font-size="32" line-height="17" text-anchor="middle" dominant-baseline="middle" alignment-baseline="middle" font-style="normal" font-weight="500" text-decoration="none" fill="#000" stroke="transparent" stroke-width="1" opacity="1" visibility="visible" id="two_20">a</text><path transform="matrix(1 0 0 1 295 130)" d="M 40 0 C 40 10.102 35.428 21.14 28.284 28.284 C 21.14 35.428 10.102 40 0 40 C -10.103 40 -21.141 35.428 -28.285 28.284 C -35.429 21.14 -40 10.102 -40 0 C -40 -10.103 -35.429 -21.141 -28.285 -28.285 C -21.141 -35.429 -10.103 -40 -0.001 -40 C 10.102 -40 21.14 -35.429 28.284 -28.285 C 35.428 -21.141 40 -10.103 40 0 Z " fill="#bfffb3" stroke="black" stroke-width="1" stroke-opacity="1" fill-opacity="1" visibility="visible" stroke-linecap="butt" stroke-linejoin="miter" stroke-miterlimit="4" id="two_22"></path><text transform="matrix(1 0 0 1 295 131.5)" font-family="FiraCode" font-size="32" line-height="17" text-anchor="middle" dominant-baseline="middle" alignment-baseline="middle" font-style="normal" font-weight="500" text-decoration="none" fill="#000" stroke="transparent" stroke-width="1" opacity="1" visibility="visible" id="two_23">a:c</text><path transform="matrix(1 0 0 1 245 220)" d="M -20 -30 L 20 -30 L 20 30 L -20 30 Z " fill="#bfffb3" stroke="black" stroke-width="1" stroke-opacity="1" fill-opacity="1" visibility="visible" stroke-linecap="butt" stroke-linejoin="miter" stroke-miterlimit="4" id="two_25"></path><text transform="matrix(1 0 0 1 245 221.5)" font-family="FiraCode" font-size="32" line-height="17" text-anchor="middle" dominant-baseline="middle" alignment-baseline="middle" font-style="normal" font-weight="500" text-decoration="none" fill="#000" stroke="transparent" stroke-width="1" opacity="1" visibility="visible" id="two_26">a</text><path transform="matrix(1 0 0 1 345 220)" d="M 40 0 C 40 10.102 35.428 21.14 28.284 28.284 C 21.14 35.428 10.102 40 0 40 C -10.103 40 -21.141 35.428 -28.285 28.284 C -35.429 21.14 -40 10.102 -40 0 C -40 -10.103 -35.429 -21.141 -28.285 -28.285 C -21.141 -35.429 -10.103 -40 -0.001 -40 C 10.102 -40 21.14 -35.429 28.284 -28.285 C 35.428 -21.141 40 -10.103 40 0 Z " fill="#bfffb3" stroke="black" stroke-width="1" stroke-opacity="1" fill-opacity="1" visibility="visible" stroke-linecap="butt" stroke-linejoin="miter" stroke-miterlimit="4" id="two_28"></path><text transform="matrix(1 0 0 1 345 221.5)" font-family="FiraCode" font-size="32" line-height="17" text-anchor="middle" dominant-baseline="middle" alignment-baseline="middle" font-style="normal" font-weight="500" text-decoration="none" fill="#000" stroke="transparent" stroke-width="1" opacity="1" visibility="visible" id="two_29">b:c</text><path transform="matrix(1 0 0 1 320 310)" d="M -20 -30 L 20 -30 L 20 30 L -20 30 Z " fill="#bfffb3" stroke="black" stroke-width="1" stroke-opacity="1" fill-opacity="1" visibility="visible" stroke-linecap="butt" stroke-linejoin="miter" stroke-miterlimit="4" id="two_31"></path><text transform="matrix(1 0 0 1 320 311.5)" font-family="FiraCode" font-size="32" line-height="17" text-anchor="middle" dominant-baseline="middle" alignment-baseline="middle" font-style="normal" font-weight="500" text-decoration="none" fill="#000" stroke="transparent" stroke-width="1" opacity="1" visibility="visible" id="two_32">c</text><path transform="matrix(1 0 0 1 370 310)" d="M -20 -30 L 20 -30 L 20 30 L -20 30 Z " fill="#bfffb3" stroke="black" stroke-width="1" stroke-opacity="1" fill-opacity="1" visibility="visible" stroke-linecap="butt" stroke-linejoin="miter" stroke-miterlimit="4" id="two_34"></path><text transform="matrix(1 0 0 1 370 311.5)" font-family="FiraCode" font-size="32" line-height="17" text-anchor="middle" dominant-baseline="middle" alignment-baseline="middle" font-style="normal" font-weight="500" text-decoration="none" fill="#000" stroke="transparent" stroke-width="1" opacity="1" visibility="visible" id="two_35">b</text></g></g></svg>